<svg width="1280" height="900" viewBox="0 0 1280 900" fill="none" xmlns="http://www.w3.org/2000/svg">
<g clip-path="url(#clip0)">
<rect width="1280" height="900" fill="#E0E0E0"/>
<rect width="1280" height="900" fill="#E0E0E0"/>
<g opacity="0.4">
<path opacity="0.2" d="M-1 210.5V210.5C29.836 233.163 66.2449 205.153 93.4676 178.257C222.001 51.2666 365.206 200.5 434.874 200.5C511.5 200.5 602.5 32 802 220" stroke="#636363" stroke-opacity="0.7" stroke-width="3"/>
<path opacity="0.2" d="M-1 334.5V334.5C29.836 357.163 66.2449 329.153 93.4676 302.257C222.001 175.267 365.206 324.5 434.874 324.5C511.5 324.5 602.5 156 802 344" stroke="#636363" stroke-opacity="0.7" stroke-width="3"/>
<path opacity="0.2" d="M-1 106.5V106.5C29.836 129.163 66.2449 101.153 93.4676 74.257C222.001 -52.7334 365.206 96.5 434.874 96.5C511.5 96.5 602.5 -72 802 116" stroke="#636363" stroke-opacity="0.7" stroke-width="3"/>
<path opacity="0.2" d="M0 532.5V532.5C30.836 555.163 67.2449 527.153 94.4676 500.257C223.001 373.267 366.206 522.5 435.874 522.5C512.5 522.5 603.5 354 803 542" stroke="#636363" stroke-opacity="0.7" stroke-width="3"/>
<path opacity="0.2" d="M0 636.5V636.5C30.836 659.163 67.2449 631.153 94.4676 604.257C223.001 477.267 366.206 626.5 435.874 626.5C512.5 626.5 603.5 458 803 646" stroke="#636363" stroke-opacity="0.7" stroke-width="3"/>
<path opacity="0.2" d="M1 760.5V760.5C31.836 783.163 68.2449 755.153 95.4676 728.257C224.001 601.267 367.206 750.5 436.874 750.5C513.5 750.5 604.5 582 804 770" stroke="#636363" stroke-opacity="0.7" stroke-width="3"/>
<path opacity="0.2" d="M1 864.5V864.5C31.836 887.163 68.2449 859.153 95.4676 832.257C224.001 705.267 367.206 854.5 436.874 854.5C513.5 854.5 604.5 686 804 874" stroke="#636363" stroke-opacity="0.7" stroke-width="3"/>
<path opacity="0.2" d="M-1 438.5V438.5C29.836 461.163 66.2449 433.153 93.4676 406.257C222.001 279.267 365.206 428.5 434.874 428.5C511.5 428.5 602.5 260 802 448" stroke="#636363" stroke-opacity="0.7" stroke-width="3"/>
</g>
<g opacity="0.4">
<path opacity="0.2" d="M802 115.5V115.5C836.363 138.681 875.86 109.052 907.291 82.0297C1055.82 -45.6663 1255.83 91.4397 1276.87 105.5C1300.06 121 1326.42 79.9095 1348.07 14" stroke="#636363" stroke-opacity="0.7" stroke-width="3"/>
<path opacity="0.2" d="M802 219.5V219.5C836.363 242.681 875.86 213.052 907.291 186.03C1055.82 58.3337 1255.83 195.44 1276.87 209.5C1300.06 225 1326.42 183.909 1348.07 118" stroke="#636363" stroke-opacity="0.7" stroke-width="3"/>
<path opacity="0.2" d="M802.645 343.5V343.5C837.007 366.681 876.505 337.052 907.936 310.03C1056.47 182.334 1256.47 319.44 1277.51 333.5C1300.71 349 1327.07 307.909 1348.71 242" stroke="#636363" stroke-opacity="0.7" stroke-width="3"/>
<path opacity="0.2" d="M802.645 447.5V447.5C837.007 470.681 876.505 441.052 907.936 414.03C1056.47 286.334 1256.47 423.44 1277.51 437.5C1300.71 453 1327.07 411.909 1348.71 346" stroke="#636363" stroke-opacity="0.7" stroke-width="3"/>
<path opacity="0.2" d="M803.289 541.5V541.5C837.652 564.681 877.149 535.052 908.581 508.03C1057.11 380.334 1257.12 517.44 1278.16 531.5C1301.35 547 1327.71 505.909 1349.36 440" stroke="#636363" stroke-opacity="0.7" stroke-width="3"/>
<path opacity="0.2" d="M803.289 645.5V645.5C837.652 668.681 877.149 639.052 908.581 612.03C1057.11 484.334 1257.12 621.44 1278.16 635.5C1301.35 651 1327.71 609.909 1349.36 544" stroke="#636363" stroke-opacity="0.7" stroke-width="3"/>
<path opacity="0.2" d="M803.934 769.5V769.5C838.296 792.681 877.794 763.052 909.225 736.03C1057.75 608.334 1257.76 745.44 1278.8 759.5C1302 775 1328.36 733.909 1350 668" stroke="#636363" stroke-opacity="0.7" stroke-width="3"/>
<path opacity="0.2" d="M803.934 873.5V873.5C838.296 896.681 877.794 867.052 909.225 840.03C1057.75 712.334 1257.76 849.44 1278.8 863.5C1302 879 1328.36 837.909 1350 772" stroke="#636363" stroke-opacity="0.7" stroke-width="3"/>
</g>
</g>
<defs>
<clipPath id="clip0">
<rect width="1280" height="900" fill="white"/>
</clipPath>
</defs>
</svg>
